<svg width="32" height="32" viewBox="0 0 32 32" fill="none" xmlns="http://www.w3.org/2000/svg">
<path d="M26.6666 25.3334V14C26.6666 13.793 26.6185 13.5889 26.5259 13.4037C26.4333 13.2186 26.2989 13.0575 26.1333 12.9334L16.8 5.93335C16.5692 5.76026 16.2885 5.66669 16 5.66669C15.7115 5.66669 15.4308 5.76026 15.2 5.93335L5.86665 12.9334C5.70105 13.0575 5.56665 13.2186 5.47408 13.4037C5.38151 13.5889 5.33331 13.793 5.33331 14V25.3334C5.33331 25.687 5.47379 26.0261 5.72384 26.2762C5.97389 26.5262 6.31302 26.6667 6.66665 26.6667H12C12.3536 26.6667 12.6927 26.5262 12.9428 26.2762C13.1928 26.0261 13.3333 25.687 13.3333 25.3334V21.3334C13.3333 20.9797 13.4738 20.6406 13.7238 20.3905C13.9739 20.1405 14.313 20 14.6666 20H17.3333C17.6869 20 18.0261 20.1405 18.2761 20.3905C18.5262 20.6406 18.6666 20.9797 18.6666 21.3334V25.3334C18.6666 25.687 18.8071 26.0261 19.0572 26.2762C19.3072 26.5262 19.6464 26.6667 20 26.6667H25.3333C25.6869 26.6667 26.0261 26.5262 26.2761 26.2762C26.5262 26.0261 26.6666 25.687 26.6666 25.3334Z" stroke="#7F27FF" stroke-width="2" stroke-linecap="round" stroke-linejoin="round"/>
</svg>
